# xmcd
#
# Track frame offsets: 
#        150
#        19137
#        48022
#        68248
#        87445
#        104417
#        123634
#        141751
#        161556
#        181897
#        200782
#        222683
#
# Disc length: 3218 seconds
#
# Revision: 0
# Processed by: cddbd v1.4PL0 Copyright (c) Steve Scherf et al.
# Submitted via: ExactAudioCopy v0.90b4
#
DISCID=b40c900c
DTITLE=Theodis Ealey - American Roots: Blues
DYEAR=2002
DGENRE=Blues
TTITLE0=If You Leave Me, I'm Going Wit'cha
TTITLE1=Looking Up At The Bottom
TTITLE2=Gimme Just A Little Sign
TTITLE3=Wicked City Woman
TTITLE4=This Time I know
TTITLE5=Stop Doggin' Me Around
TTITLE6=Do You Love Me
TTITLE7=You're on My Mind
TTITLE8=Dreamin'
TTITLE9=(Tell Me) Why I Can't Trust You
TTITLE10=I Don't Want To Talk About It
TTITLE11=Goody Sack
EXTD=
EXTT0=
EXTT1=
EXTT2=
EXTT3=
EXTT4=
EXTT5=
EXTT6=
EXTT7=
EXTT8=
EXTT9=
EXTT10=
EXTT11=
PLAYORDER=
